<?xml version="1.0" encoding="utf-8"?>
<!-- Generator: Adobe Illustrator 15.0.0, SVG Export Plug-In  -->
<!DOCTYPE svg PUBLIC "-//W3C//DTD SVG 1.1//EN" "http://www.w3.org/Graphics/SVG/1.1/DTD/svg11.dtd" [
	<!ENTITY ns_flows "http://ns.adobe.com/Flows/1.0/">
]>
<svg version="1.1"
	 xmlns="http://www.w3.org/2000/svg" xmlns:xlink="http://www.w3.org/1999/xlink" xmlns:a="http://ns.adobe.com/AdobeSVGViewerExtensions/3.0/"
	 x="0px" y="0px" width="407px" height="81px" viewBox="-4.42 -6.29 407 81"
	 overflow="visible" enable-background="new -4.42 -6.29 407 81" xml:space="preserve">
<defs>
</defs>
<path fill="#FFFFFF" d="M24.004,34.612v-19.72h10.268v36.584H24.004v-4.828c-2.539,3.582-5.814,5.371-9.826,5.371
	c-4.012,0-7.378-1.258-10.098-3.773S0,42.002,0,37.06V14.892h10.268v19.924c0,5.622,2.062,8.432,6.188,8.432
	c2.04,0,3.808-0.736,5.304-2.21C23.256,39.565,24.004,37.423,24.004,34.612z"/>
<path fill="#FFFFFF" d="M49.028,31.076v20.4h-10.2V14.892h10.2v4.08c3.083-3.128,6.55-4.692,10.404-4.692
	c3.853,0,7.083,1.36,9.69,4.08c2.606,2.72,3.91,6.348,3.91,10.88v22.236h-10.2V30.804c0-5.621-2.063-8.432-6.188-8.432
	c-2.04,0-3.82,0.737-5.338,2.21C49.787,26.056,49.028,28.22,49.028,31.076z"/>
<path fill="#FFFFFF" d="M108.255,51.477h-9.588v-4.42c-2.629,3.309-5.882,4.963-9.758,4.963s-7.129-1.121-9.758-3.365
	c-2.629-2.244-3.944-5.236-3.944-8.977c0-3.74,1.36-6.538,4.08-8.397c2.72-1.858,6.437-2.788,11.152-2.788h7.616v-0.204
	c0-3.898-2.063-5.848-6.188-5.848c-1.768,0-3.638,0.352-5.61,1.054c-1.972,0.703-3.638,1.576-4.998,2.618l-4.556-6.596
	c4.805-3.49,10.29-5.236,16.456-5.236c4.442,0,8.068,1.111,10.88,3.332c2.811,2.222,4.216,5.735,4.216,10.54V51.477z M97.988,37.536
	v-1.768h-6.392c-4.08,0-6.12,1.27-6.12,3.808c0,1.315,0.487,2.324,1.462,3.025c0.975,0.704,2.368,1.055,4.182,1.055
	c1.812,0,3.411-0.555,4.794-1.666C97.296,40.88,97.988,39.396,97.988,37.536z"/>
<path fill="#FFFFFF" d="M122.671,31.076v20.4h-10.2V14.892h10.2v4.08c3.083-3.128,6.55-4.692,10.404-4.692
	c3.853,0,7.083,1.36,9.69,4.08c2.606,2.72,3.91,6.348,3.91,10.88v22.236h-10.2V30.804c0-5.621-2.063-8.432-6.188-8.432
	c-2.04,0-3.82,0.737-5.338,2.21C123.43,26.056,122.671,28.22,122.671,31.076z"/>
<path fill="#FFFFFF" d="M151.673,10.234c-1.156-1.156-1.734-2.572-1.734-4.25c0-1.676,0.578-3.094,1.734-4.25
	C152.829,0.578,154.246,0,155.923,0c1.676,0,3.094,0.578,4.25,1.734c1.156,1.156,1.734,2.574,1.734,4.25
	c0,1.678-0.578,3.094-1.734,4.25c-1.156,1.156-2.574,1.734-4.25,1.734C154.246,11.968,152.829,11.39,151.673,10.234z
	 M161.023,51.477h-10.2V14.892h10.2V51.477z"/>
<path fill="#FFFFFF" d="M199.17,31.756v19.721h-10.268V31.484c0-2.9-0.442-5.032-1.326-6.392c-0.884-1.36-2.312-2.04-4.284-2.04
	s-3.718,0.737-5.236,2.21c-1.52,1.474-2.278,3.638-2.278,6.494v19.721h-10.2V14.892h10.2v4.148c2.811-3.172,6.029-4.76,9.656-4.76
	c2.312,0,4.408,0.68,6.29,2.04c1.88,1.36,3.298,3.015,4.25,4.964c1.404-2.221,3.298-3.944,5.678-5.168
	c2.38-1.224,4.771-1.836,7.174-1.836c4.306,0,7.774,1.281,10.404,3.842c2.628,2.562,3.944,6.268,3.944,11.118v22.236h-10.268V31.484
	c0-5.621-2.063-8.432-6.188-8.432c-2.04,0-3.808,0.737-5.304,2.21C199.918,26.736,199.17,28.9,199.17,31.756z"/>
<path fill="#FFFFFF" d="M263.906,33.184c0,5.304-1.836,9.769-5.508,13.396s-8.287,5.439-13.838,5.439
	c-5.555,0-10.166-1.812-13.839-5.439c-3.672-3.627-5.508-8.092-5.508-13.396s1.836-9.78,5.508-13.43
	c3.673-3.648,8.284-5.474,13.839-5.474c5.551,0,10.166,1.825,13.838,5.474C262.07,23.404,263.906,27.88,263.906,33.184z
	 M235.482,33.184c0,2.992,0.85,5.429,2.549,7.31c1.701,1.882,3.877,2.822,6.529,2.822c2.65,0,4.826-0.94,6.527-2.822
	c1.699-1.881,2.549-4.318,2.549-7.31s-0.85-5.44-2.549-7.344c-1.701-1.904-3.877-2.856-6.527-2.856
	c-2.652,0-4.828,0.952-6.529,2.856C236.332,27.744,235.482,30.192,235.482,33.184z"/>
<path fill="#FFFFFF" d="M289.948,34.612v-19.72h10.269v36.584h-10.269v-4.828c-2.539,3.582-5.813,5.371-9.826,5.371
	c-4.012,0-7.378-1.258-10.098-3.773s-4.08-6.244-4.08-11.186V14.892h10.269v19.924c0,5.622,2.062,8.432,6.188,8.432
	c2.04,0,3.808-0.736,5.304-2.21C289.2,39.565,289.948,37.423,289.948,34.612z"/>
<path fill="#FFFFFF" d="M332.312,40.086c0,3.604-1.326,6.494-3.979,8.67c-2.651,2.176-6.018,3.264-10.098,3.264
	c-2.72,0-5.554-0.487-8.5-1.461c-2.947-0.975-5.6-2.414-7.956-4.318l4.488-6.393c3.808,2.947,7.864,4.42,12.172,4.42
	c1.314,0,2.356-0.26,3.128-0.781c0.771-0.521,1.156-1.213,1.156-2.074s-0.533-1.654-1.599-2.38c-1.065-0.725-2.607-1.405-4.624-2.04
	c-2.018-0.634-3.559-1.178-4.624-1.632c-1.065-0.453-2.277-1.11-3.638-1.972c-2.766-1.723-4.147-4.272-4.147-7.65
	c0-3.377,1.359-6.131,4.079-8.262c2.721-2.13,6.233-3.196,10.54-3.196s8.613,1.451,12.921,4.352l-3.809,6.8
	c-3.174-2.176-6.336-3.264-9.486-3.264c-3.151,0-4.726,0.862-4.726,2.584c0,0.952,0.498,1.7,1.496,2.244
	c0.996,0.544,2.652,1.179,4.964,1.904c2.312,0.726,3.955,1.282,4.93,1.666c0.975,0.386,2.143,0.986,3.502,1.802
	C331.043,33.91,332.312,36.482,332.312,40.086z"/>
<path fill="#FFFFFF" d="M335.745,50.286c-1.156-1.156-1.734-2.572-1.734-4.25c0-1.677,0.578-3.095,1.734-4.25
	c1.156-1.156,2.572-1.733,4.25-1.733c1.677,0,3.094,0.577,4.25,1.733c1.156,1.155,1.734,2.573,1.734,4.25
	c0,1.678-0.578,3.094-1.734,4.25c-1.156,1.155-2.573,1.733-4.25,1.733C338.317,52.02,336.901,51.441,335.745,50.286z"/>
<path fill="#FFFFFF" d="M359.716,51.477h-10.2V1.02h10.2V51.477z"/>
<path fill="#FFFFFF" d="M370.596,65.893c-3.582,0-6.96-1.451-10.133-4.352l4.624-7.549c1.723,1.676,3.491,2.516,5.305,2.516
	c0.952,0,1.768-0.465,2.448-1.394c0.68-0.93,1.02-1.916,1.02-2.958c0-1.043-4.716-13.464-14.144-37.264h10.88l8.907,22.78
	l8.908-22.78h10.88l-17,43.112c-0.997,2.492-2.55,4.432-4.657,5.814C375.525,65.201,373.18,65.893,370.596,65.893z"/>
</svg>
